<svg width="900" height="275" viewBox="0 0 900 275" fill="none" xmlns="http://www.w3.org/2000/svg">
<path fill-rule="evenodd" clip-rule="evenodd" d="M0 0.333496H900V275H0V0.333496ZM230.667 137C230.667 190.388 187.388 233.667 134 233.667C80.6128 233.667 37.3337 190.388 37.3337 137C37.3337 83.6127 80.6128 40.3335 134 40.3335C187.388 40.3335 230.667 83.6127 230.667 137ZM344.667 233.667C398.055 233.667 441.334 190.388 441.334 137C441.334 83.6127 398.055 40.3335 344.667 40.3335C291.279 40.3335 248 83.6127 248 137C248 190.388 291.279 233.667 344.667 233.667ZM652 137C652 190.388 608.721 233.667 555.334 233.667C501.946 233.667 458.667 190.388 458.667 137C458.667 83.6127 501.946 40.3335 555.334 40.3335C608.721 40.3335 652 83.6127 652 137ZM766 233.667C819.388 233.667 862.667 190.388 862.667 137C862.667 83.6127 819.388 40.3335 766 40.3335C712.613 40.3335 669.334 83.6127 669.334 137C669.334 190.388 712.613 233.667 766 233.667Z" fill="url(#paint0_linear_133_31)"/>
<defs>
<linearGradient id="paint0_linear_133_31" x1="-1.75715e-07" y1="154.182" x2="899.996" y2="157.711" gradientUnits="userSpaceOnUse">
<stop stop-color="#DFDEDF"/>
<stop offset="0.26" stop-color="#1073DF"/>
<stop offset="0.735" stop-color="#FC7EFF"/>
<stop offset="0.995" stop-color="#129D16"/>
</linearGradient>
</defs>
</svg>
